<svg width="22" height="22" viewBox="0 0 22 22" fill="none" xmlns="http://www.w3.org/2000/svg">
<g id="Icon">
<path id="Vector" d="M8.89752 1.21273C9.21091 0.92649 9.69707 0.930411 10.0105 1.21665C11.1194 2.23221 12.16 3.32619 13.1323 4.51036C13.5743 3.94572 14.0765 3.33011 14.6189 2.82821C14.9364 2.53805 15.4265 2.53805 15.7439 2.83214C17.1341 4.12609 18.3114 5.83568 19.139 7.45901C19.9547 9.05881 20.4971 10.6939 20.4971 11.8467C20.4971 16.85 16.4872 21.0769 11.4971 21.0769C6.45064 21.0769 2.49707 16.8461 2.49707 11.8428C2.49707 10.3371 3.21225 8.4981 4.32118 6.67872C5.44216 4.83189 7.0252 2.90664 8.89752 1.21273ZM11.5654 17.3127C12.5819 17.3127 13.4819 17.0382 14.3297 16.4893C16.0212 15.3365 16.4752 13.0309 15.4587 11.2193C15.2779 10.8664 14.8158 10.8429 14.5547 11.1409L13.5422 12.2898C13.277 12.5878 12.7989 12.5799 12.5497 12.2702C11.8868 11.4468 10.7015 9.97635 10.0265 9.14116C9.77341 8.82747 9.29127 8.82355 9.03412 9.13723C7.67609 10.8037 6.99305 11.8545 6.99305 13.0348C6.99707 15.7207 9.03011 17.3127 11.5654 17.3127Z" fill="#0065FC"/>
</g>
</svg>
